<svg fill="none" height="512" viewBox="0 0 24 24" width="512" xmlns="http://www.w3.org/2000/svg"><g fill="rgb(0,0,0)"><path d="m12.7071 4.29289c-.3905-.39052-1.0237-.39052-1.4142 0l-3.00001 3c-.39052.39053-.39052 1.02369 0 1.41422.39053.39052 1.02369.39052 1.41422 0l1.29289-1.2929v7.58579c0 .5523.4477 1 1 1s1-.4477 1-1v-7.58579l1.2929 1.2929c.3905.39052 1.0237.39052 1.4142 0 .3905-.39053.3905-1.02369 0-1.41422z"/><path d="m4 14c.55228 0 1 .4477 1 1v1c0 1.1477.85228 2 2 2h10c1.1477 0 2-.8523 2-2v-1c0-.5523.4477-1 1-1s1 .4477 1 1v1c0 2.2523-1.7477 4-4 4h-10c-2.25228 0-4-1.7477-4-4v-1c0-.5523.44772-1 1-1z"/></g></svg>