<svg fill="none" height="512" viewBox="0 0 24 24" width="512" xmlns="http://www.w3.org/2000/svg"><path d="m17.4875 5.52567c-3.3194-2.81511-8.38049-2.65936-11.50709.46725-3.29053 3.29052-3.29053 8.72368 0 12.01418 3.29052 3.2905 8.72369 3.2905 12.01419 0 1.7067-1.7067 2.4929-3.9702 2.4929-6.1071 0-.5522-.4477-1-1-1s-1 .4478-1 1c0 1.6632-.6138 3.3996-1.9071 4.6929-2.5095 2.5095-6.6763 2.5095-9.18578 0s-2.50948-6.67629 0-9.18577c2.32816-2.32816 6.08288-2.49637 8.61718-.50465-.517.0387-.9243.47036-.9243.99718 0 .55228.4477 1 1 1h2.4c.5522 0 1-.44772 1-1v-2.40003c0-.55228-.4478-1-1-1-.5523 0-1 .44772-1 1z" fill="rgb(0,0,0)"/></svg>