<svg class="svg-icon" style="width: 1em; height: 1em;vertical-align: middle;fill: currentColor;overflow: hidden;" viewBox="0 0 1024 1024" version="1.1" xmlns="http://www.w3.org/2000/svg"><path d="M940 249.674l-196.886-163.56-55.628 65.862 196.884 163.538L940 249.674zM334.384 149.838 278.732 84 84 249.674l55.628 65.838L334.384 149.838zM533.402 345.256l-64.202 0 0 254.892 203.298 121.078 32.102-53.106-171.2-99.834L533.4 345.256zM512 175.33c-214 0-385.202 172.042-385.202 382.332C126.798 767.96 298 940 512 940c211.872 0 385.202-172.04 385.202-382.338C897.202 347.374 723.872 175.33 512 175.33zM512 855.04c-164.786 0-299.6-133.812-299.6-297.376 0-163.554 134.814-297.368 299.6-297.368 164.788 0 299.6 133.812 299.6 297.368C811.6 723.342 676.788 855.04 512 855.04z"  /></svg>